<svg width="528" height="522" viewBox="0 0 528 522" fill="none" xmlns="http://www.w3.org/2000/svg">
<path d="M151.705 160.019L17.7051 160.019" stroke="#FADF23" stroke-opacity="0.7" stroke-width="24" stroke-linecap="round"/>
<path d="M12.7051 160.019L41.6965 189.01" stroke="#FADF23" stroke-opacity="0.7" stroke-width="24" stroke-linecap="round"/>
<path d="M41.7051 131.019L12.7137 160.01" stroke="#FADF23" stroke-opacity="0.7" stroke-width="24" stroke-linecap="round"/>
<path d="M151.705 160.019L151.705 12.019" stroke="#FADF23" stroke-opacity="0.7" stroke-width="24" stroke-linecap="round"/>
<path d="M263.677 12L263.677 509.266" stroke="#01A532" stroke-opacity="0.7" stroke-width="24" stroke-linecap="round"/>
<path d="M263.677 509.019L293.705 481.134" stroke="#01A532" stroke-opacity="0.7" stroke-width="24" stroke-linecap="round"/>
<path d="M233.705 482.114L263.734 509.999" stroke="#01A532" stroke-opacity="0.7" stroke-width="24" stroke-linecap="round"/>
<path d="M207.705 379.019H12.7051" stroke="#2FE297" stroke-opacity="0.7" stroke-width="24" stroke-linecap="round"/>
<path d="M12.7061 379.342L43.4031 406.521" stroke="#2FE297" stroke-opacity="0.7" stroke-width="24" stroke-linecap="round"/>
<path d="M43.7051 351.895L13.0081 379.074" stroke="#2FE297" stroke-opacity="0.7" stroke-width="24" stroke-linecap="round"/>
<path d="M207.705 379.019L207.705 12.0189" stroke="#2FE297" stroke-opacity="0.7" stroke-width="24" stroke-linecap="round"/>
<path d="M375.705 160.019L509.705 160.019" stroke="#DA33FF" stroke-opacity="0.7" stroke-width="24" stroke-linecap="round"/>
<path d="M509.708 160.019L480.936 189.005" stroke="#DA33FF" stroke-opacity="0.7" stroke-width="24" stroke-linecap="round"/>
<path d="M480.923 131.019L509.806 160.118" stroke="#DA33FF" stroke-opacity="0.7" stroke-width="24" stroke-linecap="round"/>
<path d="M375.705 160.019L375.705 12.0189" stroke="#DA33FF" stroke-opacity="0.7" stroke-width="24" stroke-linecap="round"/>
<path d="M319.706 379.019L514.706 379.019" stroke="#FFA04D" stroke-opacity="0.7" stroke-width="24" stroke-linecap="round"/>
<path d="M514.705 378.465L483.943 405.571" stroke="#FFA04D" stroke-opacity="0.7" stroke-width="24" stroke-linecap="round"/>
<path d="M483.705 351.149L514.466 378.255" stroke="#FFA04D" stroke-opacity="0.7" stroke-width="24" stroke-linecap="round"/>
<path d="M319.705 379.019L319.705 12.0189" stroke="#FFA04D" stroke-opacity="0.7" stroke-width="24" stroke-linecap="round"/>
</svg>
