<svg width="24" height="24" viewBox="0 0 24 24" fill="none" xmlns="http://www.w3.org/2000/svg">
<path d="M8.14272 13.9285C8.14272 14.2127 8.02984 14.4852 7.8289 14.6862C7.62797 14.8871 7.35545 15 7.07129 15C6.78713 15 6.51461 14.8871 6.31367 14.6862C6.11274 14.4852 5.99986 14.2127 5.99986 13.9285C5.99986 13.6444 6.11274 13.3719 6.31367 13.1709C6.51461 12.97 6.78713 12.8571 7.07129 12.8571C7.35545 12.8571 7.62797 12.97 7.8289 13.1709C8.02984 13.3719 8.14272 13.6444 8.14272 13.9285ZM16.9284 15C17.2126 15 17.4851 14.8871 17.686 14.6862C17.887 14.4852 17.9999 14.2127 17.9999 13.9285C17.9999 13.6444 17.887 13.3719 17.686 13.1709C17.4851 12.97 17.2126 12.8571 16.9284 12.8571C16.6443 12.8571 16.3717 12.97 16.1708 13.1709C15.9699 13.3719 15.857 13.6444 15.857 13.9285C15.857 14.2127 15.9699 14.4852 16.1708 14.6862C16.3717 14.8871 16.6443 15 16.9284 15ZM9.42843 15.6428C9.42843 15.4723 9.49616 15.3088 9.61672 15.1883C9.73728 15.0677 9.90079 15 10.0713 15H13.9284C14.0989 15 14.2624 15.0677 14.383 15.1883C14.5036 15.3088 14.5713 15.4723 14.5713 15.6428C14.5713 15.8133 14.5036 15.9768 14.383 16.0974C14.2624 16.218 14.0989 16.2857 13.9284 16.2857H10.0713C9.90079 16.2857 9.73728 16.218 9.61672 16.0974C9.49616 15.9768 9.42843 15.8133 9.42843 15.6428ZM8.57129 3.21426V1.71426C8.57129 1.48693 8.6616 1.26891 8.82234 1.10817C8.98309 0.947423 9.2011 0.857117 9.42843 0.857117H14.5713C14.7986 0.857117 15.0166 0.947423 15.1774 1.10817C15.3381 1.26891 15.4284 1.48693 15.4284 1.71426V3.21426H15.5639C16.2806 3.21424 16.9768 3.4538 17.5418 3.89487C18.1068 4.33594 18.5082 4.9532 18.6821 5.64855L19.1981 7.71426H20.357C20.5275 7.71426 20.691 7.78199 20.8116 7.90255C20.9321 8.02311 20.9999 8.18662 20.9999 8.35712C20.9999 8.52761 20.9321 8.69113 20.8116 8.81169C20.691 8.93224 20.5275 8.99997 20.357 8.99997H19.5196L19.7596 9.95997C20.2425 10.1074 20.6653 10.406 20.9658 10.8119C21.2662 11.2177 21.4284 11.7093 21.4284 12.2143V19.9285C21.4284 20.5537 21.1801 21.1532 20.738 21.5953C20.296 22.0373 19.6964 22.2857 19.0713 22.2857H18.2141C17.589 22.2857 16.9894 22.0373 16.5474 21.5953C16.1053 21.1532 15.857 20.5537 15.857 19.9285V19.0714H8.14272V19.9285C8.14272 20.5537 7.89438 21.1532 7.45233 21.5953C7.01028 22.0373 6.41073 22.2857 5.78557 22.2857H4.92843C4.30328 22.2857 3.70373 22.0373 3.26168 21.5953C2.81963 21.1532 2.57129 20.5537 2.57129 19.9285V12.2143C2.57129 11.1514 3.27415 10.254 4.24015 9.95912L4.48015 8.99997H3.64272C3.47222 8.99997 3.30871 8.93224 3.18815 8.81169C3.06759 8.69113 2.99986 8.52761 2.99986 8.35712C2.99986 8.18662 3.06759 8.02311 3.18815 7.90255C3.30871 7.78199 3.47222 7.71426 3.64272 7.71426H4.80157L5.31757 5.64855C5.49151 4.9532 5.89288 4.33594 6.45788 3.89487C7.02287 3.4538 7.71909 3.21424 8.43586 3.21426H8.57129ZM9.857 3.21426H14.1427V2.14283H9.857V3.21426ZM8.43586 4.49997C8.00591 4.50012 7.58835 4.64392 7.24949 4.90855C6.91062 5.17318 6.66991 5.54345 6.56557 5.96055L5.591 9.85712H18.4087L17.435 5.96055C17.3306 5.54331 17.0898 5.17293 16.7508 4.90829C16.4117 4.64365 15.994 4.49993 15.5639 4.49997H8.43586ZM17.1427 19.0714V19.9285C17.1427 20.52 17.6227 21 18.2141 21H19.0713C19.6627 21 20.1427 20.52 20.1427 19.9285V19.0714H17.1427ZM6.857 19.9285V19.0714H3.857V19.9285C3.857 20.52 4.337 21 4.92843 21H5.78557C6.377 21 6.857 20.52 6.857 19.9285ZM19.0713 11.1428H4.92843C4.337 11.1428 3.857 11.6228 3.857 12.2143V17.7857H20.1427V12.2143C20.1427 11.6228 19.6627 11.1428 19.0713 11.1428Z" fill="white"/>
</svg>
