<svg width="24" height="24" viewBox="0 0 24 24" fill="none" xmlns="http://www.w3.org/2000/svg">
<path d="M18.643 2.57141C19.3818 2.57141 20.0903 2.86491 20.6128 3.38733C21.1352 3.90975 21.4287 4.61831 21.4287 5.35713V18.6428C21.4287 19.3817 21.1352 20.0902 20.6128 20.6126C20.0903 21.1351 19.3818 21.4286 18.643 21.4286H5.35725C4.61843 21.4286 3.90987 21.1351 3.38745 20.6126C2.86503 20.0902 2.57153 19.3817 2.57153 18.6428V5.35713C2.57153 4.61831 2.86503 3.90975 3.38745 3.38733C3.90987 2.86491 4.61843 2.57141 5.35725 2.57141H18.643ZM20.143 8.14541H3.85725V18.6428C3.85725 19.4708 4.52925 20.1428 5.35725 20.1428H18.643C19.0408 20.1428 19.4223 19.9848 19.7036 19.7035C19.9849 19.4222 20.143 19.0407 20.143 18.6428V8.14541ZM7.49925 15.0008C7.78341 15.0008 8.05593 15.1137 8.25686 15.3147C8.45779 15.5156 8.57068 15.7881 8.57068 16.0723C8.57068 16.3564 8.45779 16.629 8.25686 16.8299C8.05593 17.0308 7.78341 17.1437 7.49925 17.1437C7.21509 17.1437 6.94256 17.0308 6.74163 16.8299C6.5407 16.629 6.42782 16.3564 6.42782 16.0723C6.42782 15.7881 6.5407 15.5156 6.74163 15.3147C6.94256 15.1137 7.21509 15.0008 7.49925 15.0008ZM12.0027 15.0008C12.2868 15.0008 12.5594 15.1137 12.7603 15.3147C12.9612 15.5156 13.0741 15.7881 13.0741 16.0723C13.0741 16.3564 12.9612 16.629 12.7603 16.8299C12.5594 17.0308 12.2868 17.1437 12.0027 17.1437C11.7185 17.1437 11.446 17.0308 11.2451 16.8299C11.0441 16.629 10.9312 16.3564 10.9312 16.0723C10.9312 15.7881 11.0441 15.5156 11.2451 15.3147C11.446 15.1137 11.7185 15.0008 12.0027 15.0008ZM7.49925 10.7151C7.78341 10.7151 8.05593 10.828 8.25686 11.0289C8.45779 11.2299 8.57068 11.5024 8.57068 11.7866C8.57068 12.0707 8.45779 12.3432 8.25686 12.5442C8.05593 12.7451 7.78341 12.858 7.49925 12.858C7.21509 12.858 6.94256 12.7451 6.74163 12.5442C6.5407 12.3432 6.42782 12.0707 6.42782 11.7866C6.42782 11.5024 6.5407 11.2299 6.74163 11.0289C6.94256 10.828 7.21509 10.7151 7.49925 10.7151ZM12.0027 10.7151C12.2868 10.7151 12.5594 10.828 12.7603 11.0289C12.9612 11.2299 13.0741 11.5024 13.0741 11.7866C13.0741 12.0707 12.9612 12.3432 12.7603 12.5442C12.5594 12.7451 12.2868 12.858 12.0027 12.858C11.7185 12.858 11.446 12.7451 11.2451 12.5442C11.0441 12.3432 10.9312 12.0707 10.9312 11.7866C10.9312 11.5024 11.0441 11.2299 11.2451 11.0289C11.446 10.828 11.7185 10.7151 12.0027 10.7151ZM16.507 10.7151C16.7911 10.7151 17.0636 10.828 17.2646 11.0289C17.4655 11.2299 17.5784 11.5024 17.5784 11.7866C17.5784 12.0707 17.4655 12.3432 17.2646 12.5442C17.0636 12.7451 16.7911 12.858 16.507 12.858C16.2228 12.858 15.9503 12.7451 15.7493 12.5442C15.5484 12.3432 15.4355 12.0707 15.4355 11.7866C15.4355 11.5024 15.5484 11.2299 15.7493 11.0289C15.9503 10.828 16.2228 10.7151 16.507 10.7151ZM18.643 3.85713H5.35725C4.95942 3.85713 4.57789 4.01516 4.29659 4.29647C4.01528 4.57777 3.85725 4.9593 3.85725 5.35713V6.8597H20.143V5.35713C20.143 4.9593 19.9849 4.57777 19.7036 4.29647C19.4223 4.01516 19.0408 3.85713 18.643 3.85713Z" fill="white"/>
</svg>
