<svg width="24" height="24" viewBox="0 0 24 24" fill="none" xmlns="http://www.w3.org/2000/svg">
<path d="M17.91 13C17.97 13.16 18 13.33 18 13.5C18 14.33 17.33 15 16.5 15C15.67 15 15 14.33 15 13.5C15 13.11 15.15 12.76 15.39 12.49C13.7606 11.8313 12.4369 10.5862 11.68 9H5.81L6.85 6H11C11 5.31 11.1 4.63 11.29 4H6.5C5.84 4 5.29 4.42 5.08 5.01L3 11V19C3 19.55 3.45 20 4 20H5C5.55 20 6 19.55 6 19V18H18V19C18 19.55 18.45 20 19 20H20C20.55 20 21 19.55 21 19V12.32C19.95 12.83 18.84 13.01 17.91 13ZM7.5 15C6.67 15 6 14.33 6 13.5C6 12.67 6.67 12 7.5 12C8.33 12 9 12.67 9 13.5C9 14.33 8.33 15 7.5 15Z" fill="white"/>
<path d="M17 2C15.3414 2 14 3.4085 14 5.15C14 7.5125 17 11 17 11C17 11 20 7.5125 20 5.15C20 3.4085 18.6586 2 17 2ZM17 6.275C16.7158 6.275 16.4433 6.15647 16.2424 5.9455C16.0415 5.73452 15.9286 5.44837 15.9286 5.15C15.9286 4.85163 16.0415 4.56548 16.2424 4.3545C16.4433 4.14353 16.7158 4.025 17 4.025C17.2842 4.025 17.5567 4.14353 17.7576 4.3545C17.9585 4.56548 18.0714 4.85163 18.0714 5.15C18.0714 5.44837 17.9585 5.73452 17.7576 5.9455C17.5567 6.15647 17.2842 6.275 17 6.275Z" fill="white"/>
</svg>
